<svg xmlns="http://www.w3.org/2000/svg" viewBox="0 0 64 64" fill="none">
  <circle cx="32" cy="32" r="29" stroke="url(#g)" stroke-width="2"/>
  <path
    fill="url(#g)"
    fill-rule="evenodd"
    d="M37.5 16.5c-9.8 0-17.5 6.5-17.5 14.5s7.7 14.5 17.5 14.5c2.3 0 4.4-.5 6.2-1.4l-2.2-3.8c-1.3.65-2.6 1-4 1-6.2 0-10.8-4-10.8-10.3S29 20.7 35.2 20.7c1.4 0 2.7.35 4 1l2.2-3.8c-1.8-.9-3.9-1.4-6.2-1.4z"
  />
  <path
    fill="url(#g)"
    d="M29 18.5h5.5v13.5L43.5 18.5H50v25h-5.5V29.5L34.5 43.5H29v-25z"
  />
  <defs>
    <linearGradient id="g" x1="10" y1="6" x2="54" y2="58">
      <stop stop-color="#F5F5F5"/>
      <stop offset="0.45" stop-color="#B0B0B0"/>
      <stop offset="1" stop-color="#E8E8E8"/>
    </linearGradient>
  </defs>
</svg>
